<mxfile host="app.diagrams.net" modified="2023-12-07T15:39:22.762Z" agent="Mozilla/5.0 (Windows NT 10.0; Win64; x64) AppleWebKit/537.36 (KHTML, like Gecko) Chrome/119.0.0.0 Safari/537.36" etag="A7jrQV5GgJ9H_OTRoEtk" version="22.1.7" type="onedrive">
  <diagram name="Page-1" id="iaWcJhKdrhirkMaxKd2l">
    <mxGraphModel grid="1" page="1" gridSize="10" guides="1" tooltips="1" connect="1" arrows="1" fold="1" pageScale="1" pageWidth="827" pageHeight="1169" math="0" shadow="0">
      <root>
        <mxCell id="0" />
        <mxCell id="1" parent="0" />
        <mxCell id="RPEUt30MXAKX7aW0khqZ-259" value="Signature &quot;PE&quot; 0x4550" style="rounded=0;whiteSpace=wrap;html=1;" vertex="1" parent="1">
          <mxGeometry x="200" y="440" width="180" height="20" as="geometry" />
        </mxCell>
        <mxCell id="RPEUt30MXAKX7aW0khqZ-260" value="..." style="rounded=0;whiteSpace=wrap;html=1;" vertex="1" parent="1">
          <mxGeometry x="200" y="460" width="180" height="20" as="geometry" />
        </mxCell>
        <mxCell id="RPEUt30MXAKX7aW0khqZ-264" value="0x18" style="text;html=1;strokeColor=none;fillColor=none;align=center;verticalAlign=middle;whiteSpace=wrap;rounded=0;" vertex="1" parent="1">
          <mxGeometry x="170" y="558.5" width="30" height="25" as="geometry" />
        </mxCell>
        <mxCell id="RPEUt30MXAKX7aW0khqZ-270" value="IMAGE_DOS_HEADER" style="text;html=1;strokeColor=none;fillColor=none;align=center;verticalAlign=middle;whiteSpace=wrap;rounded=0;" vertex="1" parent="1">
          <mxGeometry x="230" y="280" width="120" height="30" as="geometry" />
        </mxCell>
        <mxCell id="RPEUt30MXAKX7aW0khqZ-367" value="e_lfanew" style="text;html=1;strokeColor=none;fillColor=none;align=center;verticalAlign=middle;whiteSpace=wrap;rounded=0;" vertex="1" parent="1">
          <mxGeometry x="100" y="367.5" width="60" height="20" as="geometry" />
        </mxCell>
        <mxCell id="RPEUt30MXAKX7aW0khqZ-401" value="" style="rounded=0;whiteSpace=wrap;html=1;" vertex="1" parent="1">
          <mxGeometry x="200" y="310" width="180" height="20" as="geometry" />
        </mxCell>
        <mxCell id="RPEUt30MXAKX7aW0khqZ-402" value="..." style="rounded=0;whiteSpace=wrap;html=1;" vertex="1" parent="1">
          <mxGeometry x="200" y="330" width="180" height="20" as="geometry" />
        </mxCell>
        <mxCell id="RPEUt30MXAKX7aW0khqZ-403" value="e_lfanew" style="rounded=0;whiteSpace=wrap;html=1;" vertex="1" parent="1">
          <mxGeometry x="200" y="350" width="180" height="20" as="geometry" />
        </mxCell>
        <mxCell id="RPEUt30MXAKX7aW0khqZ-404" value="0x3C" style="text;html=1;strokeColor=none;fillColor=none;align=center;verticalAlign=middle;whiteSpace=wrap;rounded=0;" vertex="1" parent="1">
          <mxGeometry x="170" y="347.5" width="30" height="25" as="geometry" />
        </mxCell>
        <mxCell id="RPEUt30MXAKX7aW0khqZ-405" value="e_magic &quot;MZ&quot; 0x5A4D" style="rounded=0;whiteSpace=wrap;html=1;" vertex="1" parent="1">
          <mxGeometry x="200" y="310" width="180" height="20" as="geometry" />
        </mxCell>
        <mxCell id="RPEUt30MXAKX7aW0khqZ-406" value="0x0" style="text;html=1;strokeColor=none;fillColor=none;align=center;verticalAlign=middle;whiteSpace=wrap;rounded=0;" vertex="1" parent="1">
          <mxGeometry x="170" y="310" width="30" height="20" as="geometry" />
        </mxCell>
        <mxCell id="RPEUt30MXAKX7aW0khqZ-407" value="IMAGE_NT_HEADERS" style="text;html=1;strokeColor=none;fillColor=none;align=center;verticalAlign=middle;whiteSpace=wrap;rounded=0;" vertex="1" parent="1">
          <mxGeometry x="235" y="420" width="120" height="18" as="geometry" />
        </mxCell>
        <mxCell id="RPEUt30MXAKX7aW0khqZ-411" value="" style="endArrow=none;html=1;rounded=0;exitX=0;exitY=0;exitDx=0;exitDy=0;entryX=0;entryY=0;entryDx=0;entryDy=0;" edge="1" parent="1" source="RPEUt30MXAKX7aW0khqZ-405" target="RPEUt30MXAKX7aW0khqZ-259">
          <mxGeometry width="50" height="50" relative="1" as="geometry">
            <mxPoint x="390" y="500" as="sourcePoint" />
            <mxPoint x="200" y="400" as="targetPoint" />
            <Array as="points">
              <mxPoint x="160" y="310" />
              <mxPoint x="160" y="440" />
            </Array>
          </mxGeometry>
        </mxCell>
        <mxCell id="RPEUt30MXAKX7aW0khqZ-412" value="IMAGE_DOS_STUB" style="text;html=1;strokeColor=none;fillColor=none;align=center;verticalAlign=middle;whiteSpace=wrap;rounded=0;" vertex="1" parent="1">
          <mxGeometry x="225" y="367.5" width="130" height="30" as="geometry" />
        </mxCell>
        <mxCell id="RPEUt30MXAKX7aW0khqZ-413" value="..." style="rounded=0;whiteSpace=wrap;html=1;" vertex="1" parent="1">
          <mxGeometry x="200" y="390" width="180" height="20" as="geometry" />
        </mxCell>
        <mxCell id="RPEUt30MXAKX7aW0khqZ-415" value="0x00" style="text;html=1;strokeColor=none;fillColor=none;align=center;verticalAlign=middle;whiteSpace=wrap;rounded=0;" vertex="1" parent="1">
          <mxGeometry x="170" y="440" width="30" height="20" as="geometry" />
        </mxCell>
        <mxCell id="RPEUt30MXAKX7aW0khqZ-417" value="..." style="rounded=0;whiteSpace=wrap;html=1;" vertex="1" parent="1">
          <mxGeometry x="200" y="500" width="180" height="20" as="geometry" />
        </mxCell>
        <mxCell id="RPEUt30MXAKX7aW0khqZ-418" value="NumberOfSections" style="rounded=0;whiteSpace=wrap;html=1;" vertex="1" parent="1">
          <mxGeometry x="200" y="480" width="180" height="20" as="geometry" />
        </mxCell>
        <mxCell id="RPEUt30MXAKX7aW0khqZ-419" value="SizeOfOptionalHeader" style="rounded=0;whiteSpace=wrap;html=1;" vertex="1" parent="1">
          <mxGeometry x="200" y="520" width="180" height="20" as="geometry" />
        </mxCell>
        <mxCell id="RPEUt30MXAKX7aW0khqZ-420" value="Characteristics" style="rounded=0;whiteSpace=wrap;html=1;" vertex="1" parent="1">
          <mxGeometry x="200" y="540" width="180" height="20" as="geometry" />
        </mxCell>
        <mxCell id="RPEUt30MXAKX7aW0khqZ-421" value="" style="endArrow=none;html=1;rounded=0;exitX=0;exitY=0;exitDx=0;exitDy=0;entryX=0;entryY=1;entryDx=0;entryDy=0;" edge="1" parent="1" target="RPEUt30MXAKX7aW0khqZ-420">
          <mxGeometry width="50" height="50" relative="1" as="geometry">
            <mxPoint x="200" y="460" as="sourcePoint" />
            <mxPoint x="200" y="590" as="targetPoint" />
            <Array as="points">
              <mxPoint x="60" y="460" />
              <mxPoint x="60" y="560" />
            </Array>
          </mxGeometry>
        </mxCell>
        <mxCell id="RPEUt30MXAKX7aW0khqZ-425" value="IMAGE_FILE_HEADER" style="text;html=1;strokeColor=none;fillColor=none;align=center;verticalAlign=middle;whiteSpace=wrap;rounded=0;" vertex="1" parent="1">
          <mxGeometry x="65" y="460" width="130" height="25" as="geometry" />
        </mxCell>
        <mxCell id="RPEUt30MXAKX7aW0khqZ-427" value="0x6" style="text;html=1;strokeColor=none;fillColor=none;align=center;verticalAlign=middle;whiteSpace=wrap;rounded=0;" vertex="1" parent="1">
          <mxGeometry x="170" y="480" width="30" height="20" as="geometry" />
        </mxCell>
        <mxCell id="RPEUt30MXAKX7aW0khqZ-428" value="0x14" style="text;html=1;strokeColor=none;fillColor=none;align=center;verticalAlign=middle;whiteSpace=wrap;rounded=0;" vertex="1" parent="1">
          <mxGeometry x="170" y="520" width="30" height="20" as="geometry" />
        </mxCell>
        <mxCell id="RPEUt30MXAKX7aW0khqZ-429" value="Magic" style="rounded=0;whiteSpace=wrap;html=1;" vertex="1" parent="1">
          <mxGeometry x="200" y="560" width="180" height="20" as="geometry" />
        </mxCell>
        <mxCell id="RPEUt30MXAKX7aW0khqZ-430" value="" style="endArrow=none;html=1;rounded=0;exitX=0;exitY=0;exitDx=0;exitDy=0;entryX=0;entryY=1;entryDx=0;entryDy=0;" edge="1" parent="1" target="RPEUt30MXAKX7aW0khqZ-465">
          <mxGeometry width="50" height="50" relative="1" as="geometry">
            <mxPoint x="200" y="560" as="sourcePoint" />
            <mxPoint x="200" y="920" as="targetPoint" />
            <Array as="points">
              <mxPoint y="560" />
              <mxPoint y="900" />
            </Array>
          </mxGeometry>
        </mxCell>
        <mxCell id="RPEUt30MXAKX7aW0khqZ-431" value="IMAGE_OPTIONAL_HEADER" style="text;html=1;strokeColor=none;fillColor=none;align=center;verticalAlign=middle;whiteSpace=wrap;rounded=0;" vertex="1" parent="1">
          <mxGeometry x="6" y="560" width="160" height="25" as="geometry" />
        </mxCell>
        <mxCell id="RPEUt30MXAKX7aW0khqZ-432" value="..." style="rounded=0;whiteSpace=wrap;html=1;" vertex="1" parent="1">
          <mxGeometry x="200" y="580" width="180" height="20" as="geometry" />
        </mxCell>
        <mxCell id="RPEUt30MXAKX7aW0khqZ-433" value="ImageBase" style="rounded=0;whiteSpace=wrap;html=1;" vertex="1" parent="1">
          <mxGeometry x="200" y="600" width="180" height="20" as="geometry" />
        </mxCell>
        <mxCell id="RPEUt30MXAKX7aW0khqZ-434" value="0x34" style="text;html=1;strokeColor=none;fillColor=none;align=center;verticalAlign=middle;whiteSpace=wrap;rounded=0;" vertex="1" parent="1">
          <mxGeometry x="170" y="597.5" width="30" height="25" as="geometry" />
        </mxCell>
        <mxCell id="RPEUt30MXAKX7aW0khqZ-435" value="..." style="rounded=0;whiteSpace=wrap;html=1;" vertex="1" parent="1">
          <mxGeometry x="200" y="620" width="180" height="20" as="geometry" />
        </mxCell>
        <mxCell id="RPEUt30MXAKX7aW0khqZ-436" value="SizeOfImage" style="rounded=0;whiteSpace=wrap;html=1;" vertex="1" parent="1">
          <mxGeometry x="200" y="640" width="180" height="20" as="geometry" />
        </mxCell>
        <mxCell id="RPEUt30MXAKX7aW0khqZ-437" value="SizeOfHeaders" style="rounded=0;whiteSpace=wrap;html=1;" vertex="1" parent="1">
          <mxGeometry x="200" y="660" width="180" height="20" as="geometry" />
        </mxCell>
        <mxCell id="RPEUt30MXAKX7aW0khqZ-438" value="0x50" style="text;html=1;strokeColor=none;fillColor=none;align=center;verticalAlign=middle;whiteSpace=wrap;rounded=0;" vertex="1" parent="1">
          <mxGeometry x="170" y="637.5" width="30" height="25" as="geometry" />
        </mxCell>
        <mxCell id="RPEUt30MXAKX7aW0khqZ-439" value="0x54" style="text;html=1;strokeColor=none;fillColor=none;align=center;verticalAlign=middle;whiteSpace=wrap;rounded=0;" vertex="1" parent="1">
          <mxGeometry x="170" y="657.5" width="30" height="25" as="geometry" />
        </mxCell>
        <mxCell id="RPEUt30MXAKX7aW0khqZ-441" value="..." style="rounded=0;whiteSpace=wrap;html=1;" vertex="1" parent="1">
          <mxGeometry x="200" y="680" width="180" height="20" as="geometry" />
        </mxCell>
        <mxCell id="RPEUt30MXAKX7aW0khqZ-453" style="edgeStyle=orthogonalEdgeStyle;rounded=0;orthogonalLoop=1;jettySize=auto;html=1;exitX=1;exitY=0.5;exitDx=0;exitDy=0;entryX=0;entryY=0.5;entryDx=0;entryDy=0;" edge="1" parent="1" source="RPEUt30MXAKX7aW0khqZ-442" target="RPEUt30MXAKX7aW0khqZ-474">
          <mxGeometry relative="1" as="geometry">
            <mxPoint x="420" y="550" as="targetPoint" />
          </mxGeometry>
        </mxCell>
        <mxCell id="RPEUt30MXAKX7aW0khqZ-442" value="Export Table VirtualAddress" style="rounded=0;whiteSpace=wrap;html=1;" vertex="1" parent="1">
          <mxGeometry x="200" y="700" width="180" height="20" as="geometry" />
        </mxCell>
        <mxCell id="RPEUt30MXAKX7aW0khqZ-443" value="Export Table&amp;nbsp;Size" style="rounded=0;whiteSpace=wrap;html=1;" vertex="1" parent="1">
          <mxGeometry x="200" y="720" width="180" height="20" as="geometry" />
        </mxCell>
        <mxCell id="RPEUt30MXAKX7aW0khqZ-444" value="IMAGE_DATA_DIRECTORY" style="text;html=1;strokeColor=none;fillColor=none;align=center;verticalAlign=middle;whiteSpace=wrap;rounded=0;" vertex="1" parent="1">
          <mxGeometry x="10" y="695" width="160" height="30" as="geometry" />
        </mxCell>
        <mxCell id="RPEUt30MXAKX7aW0khqZ-445" value="" style="endArrow=none;html=1;rounded=0;exitX=0;exitY=1;exitDx=0;exitDy=0;entryX=0;entryY=1;entryDx=0;entryDy=0;" edge="1" parent="1" source="RPEUt30MXAKX7aW0khqZ-441" target="RPEUt30MXAKX7aW0khqZ-443">
          <mxGeometry width="50" height="50" relative="1" as="geometry">
            <mxPoint x="290" y="650" as="sourcePoint" />
            <mxPoint x="200" y="900" as="targetPoint" />
            <Array as="points">
              <mxPoint x="10" y="700" />
              <mxPoint x="10" y="740" />
            </Array>
          </mxGeometry>
        </mxCell>
        <mxCell id="RPEUt30MXAKX7aW0khqZ-446" value="0x78" style="text;html=1;strokeColor=none;fillColor=none;align=center;verticalAlign=middle;whiteSpace=wrap;rounded=0;" vertex="1" parent="1">
          <mxGeometry x="170" y="697.5" width="30" height="25" as="geometry" />
        </mxCell>
        <mxCell id="RPEUt30MXAKX7aW0khqZ-447" value="0x7c" style="text;html=1;strokeColor=none;fillColor=none;align=center;verticalAlign=middle;whiteSpace=wrap;rounded=0;" vertex="1" parent="1">
          <mxGeometry x="170" y="717.5" width="30" height="25" as="geometry" />
        </mxCell>
        <mxCell id="RPEUt30MXAKX7aW0khqZ-449" value="Import Table VirtualAddress" style="rounded=0;whiteSpace=wrap;html=1;" vertex="1" parent="1">
          <mxGeometry x="200" y="740.5" width="180" height="20" as="geometry" />
        </mxCell>
        <mxCell id="RPEUt30MXAKX7aW0khqZ-450" value="Import Table&amp;nbsp;Size" style="rounded=0;whiteSpace=wrap;html=1;" vertex="1" parent="1">
          <mxGeometry x="200" y="760.5" width="180" height="20" as="geometry" />
        </mxCell>
        <mxCell id="RPEUt30MXAKX7aW0khqZ-451" value="0x80" style="text;html=1;strokeColor=none;fillColor=none;align=center;verticalAlign=middle;whiteSpace=wrap;rounded=0;" vertex="1" parent="1">
          <mxGeometry x="170" y="738" width="30" height="25" as="geometry" />
        </mxCell>
        <mxCell id="RPEUt30MXAKX7aW0khqZ-452" value="0x84" style="text;html=1;strokeColor=none;fillColor=none;align=center;verticalAlign=middle;whiteSpace=wrap;rounded=0;" vertex="1" parent="1">
          <mxGeometry x="170" y="758" width="30" height="25" as="geometry" />
        </mxCell>
        <mxCell id="RPEUt30MXAKX7aW0khqZ-454" value="..." style="rounded=0;whiteSpace=wrap;html=1;" vertex="1" parent="1">
          <mxGeometry x="200" y="780.5" width="180" height="20" as="geometry" />
        </mxCell>
        <mxCell id="RPEUt30MXAKX7aW0khqZ-457" value="TLS Table VirtualAddress" style="rounded=0;whiteSpace=wrap;html=1;" vertex="1" parent="1">
          <mxGeometry x="200" y="800.5" width="180" height="20" as="geometry" />
        </mxCell>
        <mxCell id="RPEUt30MXAKX7aW0khqZ-458" value="TLS Table&amp;nbsp;Size" style="rounded=0;whiteSpace=wrap;html=1;" vertex="1" parent="1">
          <mxGeometry x="200" y="820.5" width="180" height="20" as="geometry" />
        </mxCell>
        <mxCell id="RPEUt30MXAKX7aW0khqZ-459" value="0xc0" style="text;html=1;strokeColor=none;fillColor=none;align=center;verticalAlign=middle;whiteSpace=wrap;rounded=0;" vertex="1" parent="1">
          <mxGeometry x="170" y="798" width="30" height="25" as="geometry" />
        </mxCell>
        <mxCell id="RPEUt30MXAKX7aW0khqZ-460" value="0xc4" style="text;html=1;strokeColor=none;fillColor=none;align=center;verticalAlign=middle;whiteSpace=wrap;rounded=0;" vertex="1" parent="1">
          <mxGeometry x="170" y="818" width="30" height="25" as="geometry" />
        </mxCell>
        <mxCell id="RPEUt30MXAKX7aW0khqZ-461" value="Load Config Table&amp;nbsp;VirtualAddress" style="rounded=0;whiteSpace=wrap;html=1;" vertex="1" parent="1">
          <mxGeometry x="200" y="840.5" width="180" height="20" as="geometry" />
        </mxCell>
        <mxCell id="RPEUt30MXAKX7aW0khqZ-462" value="Load Config Table&amp;nbsp;Size" style="rounded=0;whiteSpace=wrap;html=1;" vertex="1" parent="1">
          <mxGeometry x="200" y="860.5" width="180" height="20" as="geometry" />
        </mxCell>
        <mxCell id="RPEUt30MXAKX7aW0khqZ-463" value="0xc8" style="text;html=1;strokeColor=none;fillColor=none;align=center;verticalAlign=middle;whiteSpace=wrap;rounded=0;" vertex="1" parent="1">
          <mxGeometry x="170" y="838" width="30" height="25" as="geometry" />
        </mxCell>
        <mxCell id="RPEUt30MXAKX7aW0khqZ-464" value="0xcc" style="text;html=1;strokeColor=none;fillColor=none;align=center;verticalAlign=middle;whiteSpace=wrap;rounded=0;" vertex="1" parent="1">
          <mxGeometry x="170" y="858" width="30" height="25" as="geometry" />
        </mxCell>
        <mxCell id="RPEUt30MXAKX7aW0khqZ-465" value="..." style="rounded=0;whiteSpace=wrap;html=1;" vertex="1" parent="1">
          <mxGeometry x="200" y="880.5" width="180" height="20" as="geometry" />
        </mxCell>
        <mxCell id="RPEUt30MXAKX7aW0khqZ-466" value="IMAGE_DATA_DIRECTORY" style="text;html=1;strokeColor=none;fillColor=none;align=center;verticalAlign=middle;whiteSpace=wrap;rounded=0;" vertex="1" parent="1">
          <mxGeometry x="10" y="735.5" width="160" height="30" as="geometry" />
        </mxCell>
        <mxCell id="RPEUt30MXAKX7aW0khqZ-467" value="" style="endArrow=none;html=1;rounded=0;exitX=0;exitY=1;exitDx=0;exitDy=0;entryX=0;entryY=1;entryDx=0;entryDy=0;" edge="1" parent="1">
          <mxGeometry width="50" height="50" relative="1" as="geometry">
            <mxPoint x="200" y="740.5" as="sourcePoint" />
            <mxPoint x="200" y="780.5" as="targetPoint" />
            <Array as="points">
              <mxPoint x="10" y="740.5" />
              <mxPoint x="10" y="780.5" />
            </Array>
          </mxGeometry>
        </mxCell>
        <mxCell id="RPEUt30MXAKX7aW0khqZ-468" value="IMAGE_DATA_DIRECTORY" style="text;html=1;strokeColor=none;fillColor=none;align=center;verticalAlign=middle;whiteSpace=wrap;rounded=0;" vertex="1" parent="1">
          <mxGeometry x="10" y="795.5" width="160" height="30" as="geometry" />
        </mxCell>
        <mxCell id="RPEUt30MXAKX7aW0khqZ-469" value="" style="endArrow=none;html=1;rounded=0;exitX=0;exitY=1;exitDx=0;exitDy=0;entryX=0;entryY=1;entryDx=0;entryDy=0;" edge="1" parent="1">
          <mxGeometry width="50" height="50" relative="1" as="geometry">
            <mxPoint x="200" y="800.5" as="sourcePoint" />
            <mxPoint x="200" y="840.5" as="targetPoint" />
            <Array as="points">
              <mxPoint x="10" y="800.5" />
              <mxPoint x="10" y="840.5" />
            </Array>
          </mxGeometry>
        </mxCell>
        <mxCell id="RPEUt30MXAKX7aW0khqZ-470" value="IMAGE_DATA_DIRECTORY" style="text;html=1;strokeColor=none;fillColor=none;align=center;verticalAlign=middle;whiteSpace=wrap;rounded=0;" vertex="1" parent="1">
          <mxGeometry x="10" y="835.5" width="160" height="30" as="geometry" />
        </mxCell>
        <mxCell id="RPEUt30MXAKX7aW0khqZ-471" value="" style="endArrow=none;html=1;rounded=0;exitX=0;exitY=1;exitDx=0;exitDy=0;entryX=0;entryY=1;entryDx=0;entryDy=0;" edge="1" parent="1">
          <mxGeometry width="50" height="50" relative="1" as="geometry">
            <mxPoint x="200" y="840.5" as="sourcePoint" />
            <mxPoint x="200" y="880.5" as="targetPoint" />
            <Array as="points">
              <mxPoint x="10" y="840.5" />
              <mxPoint x="10" y="880.5" />
            </Array>
          </mxGeometry>
        </mxCell>
        <mxCell id="RPEUt30MXAKX7aW0khqZ-473" value="IMAGE_EXPORT_DIRECTORY" style="text;html=1;strokeColor=none;fillColor=none;align=center;verticalAlign=middle;whiteSpace=wrap;rounded=0;" vertex="1" parent="1">
          <mxGeometry x="439" y="283" width="190" height="30" as="geometry" />
        </mxCell>
        <mxCell id="RPEUt30MXAKX7aW0khqZ-474" value="..." style="rounded=0;whiteSpace=wrap;html=1;" vertex="1" parent="1">
          <mxGeometry x="444" y="318" width="180" height="20" as="geometry" />
        </mxCell>
        <mxCell id="RPEUt30MXAKX7aW0khqZ-475" value="NumberOfNames" style="rounded=0;whiteSpace=wrap;html=1;" vertex="1" parent="1">
          <mxGeometry x="444" y="338" width="180" height="20" as="geometry" />
        </mxCell>
        <mxCell id="RPEUt30MXAKX7aW0khqZ-476" value="0x18" style="text;html=1;strokeColor=none;fillColor=none;align=center;verticalAlign=middle;whiteSpace=wrap;rounded=0;" vertex="1" parent="1">
          <mxGeometry x="414" y="335.5" width="30" height="25" as="geometry" />
        </mxCell>
        <mxCell id="RPEUt30MXAKX7aW0khqZ-512" style="edgeStyle=orthogonalEdgeStyle;rounded=0;orthogonalLoop=1;jettySize=auto;html=1;exitX=1;exitY=0.5;exitDx=0;exitDy=0;entryX=1;entryY=0.25;entryDx=0;entryDy=0;" edge="1" parent="1" source="RPEUt30MXAKX7aW0khqZ-478" target="RPEUt30MXAKX7aW0khqZ-511">
          <mxGeometry relative="1" as="geometry">
            <Array as="points">
              <mxPoint x="700" y="368" />
              <mxPoint x="700" y="815" />
            </Array>
          </mxGeometry>
        </mxCell>
        <mxCell id="RPEUt30MXAKX7aW0khqZ-478" value="AddressOfFunctions" style="rounded=0;whiteSpace=wrap;html=1;" vertex="1" parent="1">
          <mxGeometry x="444" y="358" width="180" height="20" as="geometry" />
        </mxCell>
        <mxCell id="RPEUt30MXAKX7aW0khqZ-509" style="edgeStyle=orthogonalEdgeStyle;rounded=0;orthogonalLoop=1;jettySize=auto;html=1;exitX=1;exitY=0.5;exitDx=0;exitDy=0;entryX=1;entryY=0.25;entryDx=0;entryDy=0;" edge="1" parent="1" source="RPEUt30MXAKX7aW0khqZ-479" target="RPEUt30MXAKX7aW0khqZ-484">
          <mxGeometry relative="1" as="geometry" />
        </mxCell>
        <mxCell id="RPEUt30MXAKX7aW0khqZ-479" value="AddressOfNames" style="rounded=0;whiteSpace=wrap;html=1;" vertex="1" parent="1">
          <mxGeometry x="444" y="377.5" width="180" height="20" as="geometry" />
        </mxCell>
        <mxCell id="RPEUt30MXAKX7aW0khqZ-507" style="edgeStyle=orthogonalEdgeStyle;rounded=0;orthogonalLoop=1;jettySize=auto;html=1;exitX=1;exitY=0.5;exitDx=0;exitDy=0;entryX=1;entryY=0.25;entryDx=0;entryDy=0;" edge="1" parent="1" source="RPEUt30MXAKX7aW0khqZ-480" target="RPEUt30MXAKX7aW0khqZ-500">
          <mxGeometry relative="1" as="geometry" />
        </mxCell>
        <mxCell id="RPEUt30MXAKX7aW0khqZ-480" value="AddressOfNameOrdinals" style="rounded=0;whiteSpace=wrap;html=1;" vertex="1" parent="1">
          <mxGeometry x="444" y="397.5" width="180" height="20" as="geometry" />
        </mxCell>
        <mxCell id="RPEUt30MXAKX7aW0khqZ-481" value="0x1c" style="text;html=1;strokeColor=none;fillColor=none;align=center;verticalAlign=middle;whiteSpace=wrap;rounded=0;" vertex="1" parent="1">
          <mxGeometry x="414" y="356.5" width="30" height="25" as="geometry" />
        </mxCell>
        <mxCell id="RPEUt30MXAKX7aW0khqZ-482" value="0x20" style="text;html=1;strokeColor=none;fillColor=none;align=center;verticalAlign=middle;whiteSpace=wrap;rounded=0;" vertex="1" parent="1">
          <mxGeometry x="414" y="376.5" width="30" height="25" as="geometry" />
        </mxCell>
        <mxCell id="RPEUt30MXAKX7aW0khqZ-483" value="0x24" style="text;html=1;strokeColor=none;fillColor=none;align=center;verticalAlign=middle;whiteSpace=wrap;rounded=0;" vertex="1" parent="1">
          <mxGeometry x="414" y="395" width="30" height="25" as="geometry" />
        </mxCell>
        <mxCell id="bPpP96jrtMA3Vdxw06hq-20" style="edgeStyle=orthogonalEdgeStyle;rounded=0;orthogonalLoop=1;jettySize=auto;html=1;exitX=1;exitY=0.75;exitDx=0;exitDy=0;entryX=1;entryY=0.5;entryDx=0;entryDy=0;endArrow=block;endFill=0;dashed=1;" edge="1" parent="1" source="RPEUt30MXAKX7aW0khqZ-484" target="RPEUt30MXAKX7aW0khqZ-491">
          <mxGeometry relative="1" as="geometry">
            <Array as="points">
              <mxPoint x="680" y="605" />
              <mxPoint x="680" y="622" />
            </Array>
          </mxGeometry>
        </mxCell>
        <mxCell id="RPEUt30MXAKX7aW0khqZ-484" value="Name1Addr" style="rounded=0;whiteSpace=wrap;html=1;" vertex="1" parent="1">
          <mxGeometry x="479" y="588.5" width="180" height="22.5" as="geometry" />
        </mxCell>
        <mxCell id="RPEUt30MXAKX7aW0khqZ-485" value="Table of Names" style="text;html=1;strokeColor=none;fillColor=none;align=center;verticalAlign=middle;whiteSpace=wrap;rounded=0;" vertex="1" parent="1">
          <mxGeometry x="521.5" y="558.5" width="95" height="30" as="geometry" />
        </mxCell>
        <mxCell id="RPEUt30MXAKX7aW0khqZ-486" value="" style="endArrow=classic;html=1;rounded=0;exitX=0;exitY=0.5;exitDx=0;exitDy=0;edgeStyle=orthogonalEdgeStyle;entryX=0;entryY=0.5;entryDx=0;entryDy=0;" edge="1" parent="1" source="RPEUt30MXAKX7aW0khqZ-484" target="RPEUt30MXAKX7aW0khqZ-487">
          <mxGeometry width="50" height="50" relative="1" as="geometry">
            <mxPoint x="689" y="631" as="sourcePoint" />
            <mxPoint x="689" y="600" as="targetPoint" />
            <Array as="points">
              <mxPoint x="470" y="600" />
              <mxPoint x="470" y="680" />
            </Array>
          </mxGeometry>
        </mxCell>
        <mxCell id="RPEUt30MXAKX7aW0khqZ-487" value="Char1" style="rounded=0;whiteSpace=wrap;html=1;" vertex="1" parent="1">
          <mxGeometry x="529" y="664.75" width="80" height="30" as="geometry" />
        </mxCell>
        <mxCell id="RPEUt30MXAKX7aW0khqZ-488" value="Char2" style="rounded=0;whiteSpace=wrap;html=1;" vertex="1" parent="1">
          <mxGeometry x="529" y="694.75" width="80" height="30" as="geometry" />
        </mxCell>
        <mxCell id="RPEUt30MXAKX7aW0khqZ-489" value="..." style="rounded=0;whiteSpace=wrap;html=1;" vertex="1" parent="1">
          <mxGeometry x="529" y="720.25" width="80" height="30" as="geometry" />
        </mxCell>
        <mxCell id="RPEUt30MXAKX7aW0khqZ-490" value="0x00" style="rounded=0;whiteSpace=wrap;html=1;" vertex="1" parent="1">
          <mxGeometry x="529" y="750.25" width="80" height="30" as="geometry" />
        </mxCell>
        <mxCell id="RPEUt30MXAKX7aW0khqZ-491" value="Name2Addr" style="rounded=0;whiteSpace=wrap;html=1;" vertex="1" parent="1">
          <mxGeometry x="479" y="611" width="180" height="22.5" as="geometry" />
        </mxCell>
        <mxCell id="RPEUt30MXAKX7aW0khqZ-492" value="..." style="rounded=0;whiteSpace=wrap;html=1;" vertex="1" parent="1">
          <mxGeometry x="479" y="633.5" width="180" height="22.5" as="geometry" />
        </mxCell>
        <mxCell id="RPEUt30MXAKX7aW0khqZ-495" value="Table of Ordinals" style="text;html=1;strokeColor=none;fillColor=none;align=center;verticalAlign=middle;whiteSpace=wrap;rounded=0;" vertex="1" parent="1">
          <mxGeometry x="491.5" y="425.37" width="95" height="30" as="geometry" />
        </mxCell>
        <mxCell id="RPEUt30MXAKX7aW0khqZ-496" value="0x0" style="text;html=1;strokeColor=none;fillColor=none;align=center;verticalAlign=middle;whiteSpace=wrap;rounded=0;" vertex="1" parent="1">
          <mxGeometry x="430" y="591.25" width="40" height="18.25" as="geometry" />
        </mxCell>
        <mxCell id="RPEUt30MXAKX7aW0khqZ-499" value="0x4" style="text;html=1;strokeColor=none;fillColor=none;align=center;verticalAlign=middle;whiteSpace=wrap;rounded=0;" vertex="1" parent="1">
          <mxGeometry x="435" y="613.75" width="30" height="15" as="geometry" />
        </mxCell>
        <mxCell id="RPEUt30MXAKX7aW0khqZ-500" value="Ordinal1" style="rounded=0;whiteSpace=wrap;html=1;" vertex="1" parent="1">
          <mxGeometry x="479" y="455.37" width="112.5" height="28.25" as="geometry" />
        </mxCell>
        <mxCell id="RPEUt30MXAKX7aW0khqZ-501" value="0x0" style="text;html=1;strokeColor=none;fillColor=none;align=center;verticalAlign=middle;whiteSpace=wrap;rounded=0;" vertex="1" parent="1">
          <mxGeometry x="439" y="461.24" width="40" height="18.25" as="geometry" />
        </mxCell>
        <mxCell id="RPEUt30MXAKX7aW0khqZ-502" value="Ordinal2" style="rounded=0;whiteSpace=wrap;html=1;" vertex="1" parent="1">
          <mxGeometry x="479" y="483.62" width="112.5" height="28.25" as="geometry" />
        </mxCell>
        <mxCell id="RPEUt30MXAKX7aW0khqZ-503" value="0x2" style="text;html=1;strokeColor=none;fillColor=none;align=center;verticalAlign=middle;whiteSpace=wrap;rounded=0;" vertex="1" parent="1">
          <mxGeometry x="439" y="491.25" width="40" height="18.25" as="geometry" />
        </mxCell>
        <mxCell id="RPEUt30MXAKX7aW0khqZ-505" value="..." style="rounded=0;whiteSpace=wrap;html=1;" vertex="1" parent="1">
          <mxGeometry x="479" y="511.75" width="112.5" height="28.25" as="geometry" />
        </mxCell>
        <mxCell id="bPpP96jrtMA3Vdxw06hq-14" style="edgeStyle=orthogonalEdgeStyle;rounded=0;orthogonalLoop=1;jettySize=auto;html=1;exitX=1;exitY=0.75;exitDx=0;exitDy=0;entryX=1;entryY=0.5;entryDx=0;entryDy=0;endArrow=block;endFill=0;dashed=1;" edge="1" parent="1" source="RPEUt30MXAKX7aW0khqZ-511" target="RPEUt30MXAKX7aW0khqZ-516">
          <mxGeometry relative="1" as="geometry">
            <Array as="points">
              <mxPoint x="690" y="826" />
              <mxPoint x="690" y="843" />
            </Array>
          </mxGeometry>
        </mxCell>
        <mxCell id="RPEUt30MXAKX7aW0khqZ-511" value="Function1Addr" style="rounded=0;whiteSpace=wrap;html=1;" vertex="1" parent="1">
          <mxGeometry x="484" y="809.25" width="180" height="22.5" as="geometry" />
        </mxCell>
        <mxCell id="RPEUt30MXAKX7aW0khqZ-513" value="0x0" style="text;html=1;strokeColor=none;fillColor=none;align=center;verticalAlign=middle;whiteSpace=wrap;rounded=0;" vertex="1" parent="1">
          <mxGeometry x="444" y="811.38" width="40" height="18.25" as="geometry" />
        </mxCell>
        <mxCell id="RPEUt30MXAKX7aW0khqZ-516" value="Function2Addr" style="rounded=0;whiteSpace=wrap;html=1;" vertex="1" parent="1">
          <mxGeometry x="484" y="831.75" width="180" height="22.5" as="geometry" />
        </mxCell>
        <mxCell id="RPEUt30MXAKX7aW0khqZ-517" value="0x4" style="text;html=1;strokeColor=none;fillColor=none;align=center;verticalAlign=middle;whiteSpace=wrap;rounded=0;" vertex="1" parent="1">
          <mxGeometry x="444" y="833.5" width="40" height="18.25" as="geometry" />
        </mxCell>
        <mxCell id="RPEUt30MXAKX7aW0khqZ-518" value="..." style="rounded=0;whiteSpace=wrap;html=1;" vertex="1" parent="1">
          <mxGeometry x="484" y="854.25" width="180" height="22.5" as="geometry" />
        </mxCell>
        <mxCell id="RPEUt30MXAKX7aW0khqZ-519" value="Table of Functions" style="text;html=1;strokeColor=none;fillColor=none;align=center;verticalAlign=middle;whiteSpace=wrap;rounded=0;" vertex="1" parent="1">
          <mxGeometry x="510.25" y="784.25" width="127.5" height="30" as="geometry" />
        </mxCell>
        <mxCell id="bPpP96jrtMA3Vdxw06hq-1" value="1" style="text;html=1;strokeColor=#6c8ebf;fillColor=#dae8fc;align=center;verticalAlign=middle;whiteSpace=wrap;rounded=0;" vertex="1" parent="1">
          <mxGeometry x="130" y="347.5" width="20" height="20" as="geometry" />
        </mxCell>
        <mxCell id="bPpP96jrtMA3Vdxw06hq-2" value="2" style="text;html=1;strokeColor=#d6b656;fillColor=#fff2cc;align=center;verticalAlign=middle;whiteSpace=wrap;rounded=0;" vertex="1" parent="1">
          <mxGeometry x="415" y="700.25" width="20" height="20" as="geometry" />
        </mxCell>
        <mxCell id="bPpP96jrtMA3Vdxw06hq-3" value="3" style="text;html=1;strokeColor=#d79b00;fillColor=#ffe6cc;align=center;verticalAlign=middle;whiteSpace=wrap;rounded=0;" vertex="1" parent="1">
          <mxGeometry x="650" y="565" width="20" height="20" as="geometry" />
        </mxCell>
        <mxCell id="bPpP96jrtMA3Vdxw06hq-4" value="4" style="text;html=1;strokeColor=#b85450;fillColor=#f8cecc;align=center;verticalAlign=middle;whiteSpace=wrap;rounded=0;" vertex="1" parent="1">
          <mxGeometry x="444" y="664.75" width="20" height="20" as="geometry" />
        </mxCell>
        <mxCell id="bPpP96jrtMA3Vdxw06hq-5" value="5" style="text;html=1;strokeColor=#9673a6;fillColor=#e1d5e7;align=center;verticalAlign=middle;whiteSpace=wrap;rounded=0;" vertex="1" parent="1">
          <mxGeometry x="609" y="500" width="20" height="20" as="geometry" />
        </mxCell>
        <mxCell id="bPpP96jrtMA3Vdxw06hq-11" value="6" style="text;html=1;strokeColor=#82b366;fillColor=#d5e8d4;align=center;verticalAlign=middle;whiteSpace=wrap;rounded=0;" vertex="1" parent="1">
          <mxGeometry x="629" y="340.5" width="20" height="20" as="geometry" />
        </mxCell>
        <mxCell id="bPpP96jrtMA3Vdxw06hq-12" value="" style="endArrow=block;html=1;rounded=0;exitX=1;exitY=0.75;exitDx=0;exitDy=0;entryX=1;entryY=0.5;entryDx=0;entryDy=0;edgeStyle=orthogonalEdgeStyle;endFill=0;dashed=1;" edge="1" parent="1" source="RPEUt30MXAKX7aW0khqZ-500" target="RPEUt30MXAKX7aW0khqZ-502">
          <mxGeometry width="50" height="50" relative="1" as="geometry">
            <mxPoint x="591.5" y="483.62" as="sourcePoint" />
            <mxPoint x="641.5" y="433.62" as="targetPoint" />
            <Array as="points">
              <mxPoint x="610" y="477" />
              <mxPoint x="610" y="498" />
            </Array>
          </mxGeometry>
        </mxCell>
        <mxCell id="bPpP96jrtMA3Vdxw06hq-15" value="+OrdinalX * 4" style="text;html=1;strokeColor=none;fillColor=none;align=center;verticalAlign=middle;whiteSpace=wrap;rounded=0;" vertex="1" parent="1">
          <mxGeometry x="690" y="818" width="80" height="30" as="geometry" />
        </mxCell>
        <mxCell id="bPpP96jrtMA3Vdxw06hq-17" value="+2" style="text;html=1;strokeColor=none;fillColor=none;align=center;verticalAlign=middle;whiteSpace=wrap;rounded=0;" vertex="1" parent="1">
          <mxGeometry x="609" y="479.49" width="23" height="20" as="geometry" />
        </mxCell>
        <mxCell id="bPpP96jrtMA3Vdxw06hq-18" value="+4" style="text;html=1;strokeColor=none;fillColor=none;align=center;verticalAlign=middle;whiteSpace=wrap;rounded=0;" vertex="1" parent="1">
          <mxGeometry x="680" y="605" width="17" height="17.5" as="geometry" />
        </mxCell>
        <mxCell id="bPpP96jrtMA3Vdxw06hq-22" value="5" style="text;html=1;strokeColor=#9673a6;fillColor=#e1d5e7;align=center;verticalAlign=middle;whiteSpace=wrap;rounded=0;" vertex="1" parent="1">
          <mxGeometry x="677" y="628.75" width="20" height="20" as="geometry" />
        </mxCell>
        <mxCell id="bPpP96jrtMA3Vdxw06hq-23" value="7" style="text;html=1;strokeColor=#666666;fillColor=#f5f5f5;align=center;verticalAlign=middle;whiteSpace=wrap;rounded=0;fontColor=#333333;" vertex="1" parent="1">
          <mxGeometry x="710" y="803" width="20" height="20" as="geometry" />
        </mxCell>
        <mxCell id="bPpP96jrtMA3Vdxw06hq-25" value="3" style="text;html=1;strokeColor=#d79b00;fillColor=#ffe6cc;align=center;verticalAlign=middle;whiteSpace=wrap;rounded=0;" vertex="1" parent="1">
          <mxGeometry x="591.5" y="430.37" width="20" height="20" as="geometry" />
        </mxCell>
      </root>
    </mxGraphModel>
  </diagram>
</mxfile>
